ffmpeg version 3.4.8-0ubuntu0.2 Copyright (c) 2000-2020 the FFmpeg developers
  built with gcc 7 (Ubuntu 7.5.0-3ubuntu1~18.04)
  configuration: --prefix=/usr --extra-version=0ubuntu0.2 --toolchain=hardened --libdir=/usr/lib/x86_64-linux-gnu --incdir=/usr/include/x86_64-linux-gnu --enable-gpl --disable-stripping --enable-avresample --enable-avisynth --enable-gnutls --enable-ladspa --enable-libass --enable-libbluray --enable-libbs2b --enable-libcaca --enable-libcdio --enable-libflite --enable-libfontconfig --enable-libfreetype --enable-libfribidi --enable-libgme --enable-libgsm --enable-libmp3lame --enable-libmysofa --enable-libopenjpeg --enable-libopenmpt --enable-libopus --enable-libpulse --enable-librubberband --enable-librsvg --enable-libshine --enable-libsnappy --enable-libsoxr --enable-libspeex --enable-libssh --enable-libtheora --enable-libtwolame --enable-libvorbis --enable-libvpx --enable-libwavpack --enable-libwebp --enable-libx265 --enable-libxml2 --enable-libxvid --enable-libzmq --enable-libzvbi --enable-omx --enable-openal --enable-opengl --enable-sdl2 --enable-libdc1394 --enable-libdrm --enable-libiec61883 --enable-chromaprint --enable-frei0r --enable-libopencv --enable-libx264 --enable-shared
  libavutil      55. 78.100 / 55. 78.100
  libavcodec     57.107.100 / 57.107.100
  libavformat    57. 83.100 / 57. 83.100
  libavdevice    57. 10.100 / 57. 10.100
  libavfilter     6.107.100 /  6.107.100
  libavresample   3.  7.  0 /  3.  7.  0
  libswscale      4.  8.100 /  4.  8.100
  libswresample   2.  9.100 /  2.  9.100
  libpostproc    54.  7.100 / 54.  7.100
[rawvideo @ 0x558ce77d4a20] Estimating duration from bitrate, this may be inaccurate
Input #0, rawvideo, from '../../SVC-Encoder-20220109T061506Z-001/SVC-Encoder/Dataset/RollerCoaster/ERP_8x8/tile_yuv/Tile_56_480x240.yuv':
  Duration: 00:00:10.00, start: 0.000000, bitrate: 41472 kb/s
    Stream #0:0: Video: rawvideo (I420 / 0x30323449), yuv420p, 480x240, 41472 kb/s, 30 tbr, 30 tbn, 30 tbc
Stream mapping:
  Stream #0:0 -> #0:0 (rawvideo (native) -> h264 (libx264))
Press [q] to stop, [?] for help
[libx264 @ 0x558ce77e1c60] using cpu capabilities: MMX2 SSE2Fast LZCNT SSSE3 SSE4.2 AVX
[libx264 @ 0x558ce77e1c60] profile High, level 2.1
Output #0, rawvideo, to 'RollerCoaster_Tile_56_480x240_x264_QP_36.h264':
  Metadata:
    encoder         : Lavf57.83.100
    Stream #0:0: Video: h264 (libx264), yuv420p, 480x240, q=-1--1, 30 fps, 30 tbn, 30 tbc
    Metadata:
      encoder         : Lavc57.107.100 libx264
    Side data:
      cpb: bitrate max/min/avg: 0/0/0 buffer size: 0 vbv_delay: -1
frame=  300 fps=0.0 q=42.0 LPSNR=Y:inf U:inf V:inf *:inf size=      34kB time=00:00:09.93 bitrate=  27.8kbits/s speed=18.8x    
video:34kB audio:0kB subtitle:0kB other streams:0kB global headers:0kB muxing overhead: 0.000000%
[libx264 @ 0x558ce77e1c60] frame I:2     Avg QP:33.97  size:  3770  PSNR Mean Y:39.04 U:43.75 V:41.66 Avg:39.93 Global:39.90
[libx264 @ 0x558ce77e1c60] frame P:76    Avg QP:34.14  size:   186  PSNR Mean Y:37.83 U:43.85 V:42.27 Avg:38.97 Global:38.95
[libx264 @ 0x558ce77e1c60] frame B:222   Avg QP:41.48  size:    58  PSNR Mean Y:37.77 U:43.85 V:42.25 Avg:38.92 Global:38.91
[libx264 @ 0x558ce77e1c60] consecutive B-frames:  0.7%  1.3%  2.0% 96.0%
[libx264 @ 0x558ce77e1c60] mb I  I16..4: 36.8% 46.1% 17.1%
[libx264 @ 0x558ce77e1c60] mb P  I16..4:  0.5%  0.1%  0.0%  P16..4: 21.9%  0.7%  0.1%  0.0%  0.0%    skip:76.8%
[libx264 @ 0x558ce77e1c60] mb B  I16..4:  0.0%  0.0%  0.0%  B16..8: 10.6%  0.0%  0.0%  direct: 0.0%  skip:89.4%  L0:45.2% L1:54.8% BI: 0.0%
[libx264 @ 0x558ce77e1c60] 8x8 transform intra:40.5% inter:93.3%
[libx264 @ 0x558ce77e1c60] coded y,uvDC,uvAC intra: 28.4% 36.5% 12.0% inter: 0.3% 0.5% 0.0%
[libx264 @ 0x558ce77e1c60] i16 v,h,dc,p: 21% 66%  9%  4%
[libx264 @ 0x558ce77e1c60] i8 v,h,dc,ddl,ddr,vr,hd,vl,hu:  3% 53% 21%  3%  2%  2%  4%  2% 11%
[libx264 @ 0x558ce77e1c60] i4 v,h,dc,ddl,ddr,vr,hd,vl,hu:  2% 66% 19%  2%  1%  0%  2%  0%  8%
[libx264 @ 0x558ce77e1c60] i8c dc,h,v,p: 46% 48%  1%  4%
[libx264 @ 0x558ce77e1c60] Weighted P-Frames: Y:2.6% UV:0.0%
[libx264 @ 0x558ce77e1c60] ref P L0: 62.9%  9.8% 20.6%  6.6%  0.1%
[libx264 @ 0x558ce77e1c60] ref B L0: 61.4% 31.2%  7.4%
[libx264 @ 0x558ce77e1c60] ref B L1: 79.6% 20.4%
[libx264 @ 0x558ce77e1c60] PSNR Mean Y:37.796 U:43.852 V:42.248 Avg:38.938 Global:38.927 kb/s:27.64
